{
    "asset" : {
        "generator" : "Khronos glTF Blender I/O v1.6.16",
        "version" : "2.0"
    },
    "extensionsUsed" : [
        "KHR_lights_punctual"
    ],
    "extensionsRequired" : [
        "KHR_lights_punctual"
    ],
    "extensions" : {
        "KHR_lights_punctual" : {
            "lights" : [
                {
                    "color" : [
                        1,
                        0.9409390687942505,
                        0.7073366641998291
                    ],
                    "intensity" : 250,
                    "type" : "point",
                    "name" : "Light"
                }
            ]
        }
    },
    "scene" : 0,
    "scenes" : [
        {
            "name" : "Scene",
            "nodes" : [
                1,
                3,
                4,
                5,
                6,
                7,
                11
            ]
        }
    ],
    "nodes" : [
        {
            "extensions" : {
                "KHR_lights_punctual" : {
                    "light" : 0
                }
            },
            "name" : "Light_Orientation",
            "rotation" : [
                -0.7071067690849304,
                0,
                0,
                0.7071067690849304
            ]
        },
        {
            "children" : [
                0
            ],
            "name" : "Light",
            "rotation" : [
                0.16907575726509094,
                0.7558803558349609,
                -0.27217137813568115,
                0.570947527885437
            ],
            "translation" : [
                -1.0404421091079712,
                2.8339622020721436,
                0.5690159797668457
            ]
        },
        {
            "camera" : 0,
            "name" : "Camera_Orientation",
            "rotation" : [
                -0.7071067690849304,
                0,
                0,
                0.7071067690849304
            ]
        },
        {
            "children" : [
                2
            ],
            "name" : "Camera",
            "rotation" : [
                0.483536034822464,
                0.33687159419059753,
                -0.20870360732078552,
                0.7804827094078064
            ],
            "translation" : [
                4.683801651000977,
                2.5631203651428223,
                4.396352291107178
            ]
        },
        {
            "mesh" : 0,
            "name" : "wall_8x4",
            "translation" : [
                4,
                0,
                -3
            ]
        },
        {
            "mesh" : 1,
            "name" : "wall_4x4",
            "translation" : [
                -3.749999761581421,
                0,
                -2.749999523162842
            ]
        },
        {
            "name" : "LookAt",
            "translation" : [
                -1.3347868919372559,
                1.513283371925354,
                -2.258809804916382
            ]
        },
        {
            "mesh" : 2,
            "name" : "wall_8x4.001",
            "rotation" : [
                -0.7071068286895752,
                0,
                0,
                0.7071068286895752
            ],
            "translation" : [
                4,
                0,
                1
            ]
        },
        {
            "mesh" : 3,
            "name" : "base",
            "rotation" : [
                -0.7069482803344727,
                0,
                0,
                0.7072652578353882
            ]
        },
        {
            "mesh" : 4,
            "name" : "handle",
            "translation" : [
                0,
                0.24518537521362305,
                0.3640103340148926
            ]
        },
        {
            "mesh" : 5,
            "name" : "light",
            "translation" : [
                0,
                -0.1096029281616211,
                0.8490428924560547
            ]
        },
        {
            "children" : [
                8,
                9,
                10
            ],
            "mesh" : 6,
            "name" : "lamp_outer",
            "scale" : [
                0.4000000059604645,
                0.4000000059604645,
                0.4000000059604645
            ],
            "translation" : [
                -2.800687313079834,
                2.33136248588562,
                -3
            ]
        }
    ],
    "cameras" : [
        {
            "name" : "Camera",
            "perspective" : {
                "aspectRatio" : 1.7777777777777777,
                "yfov" : 0.39959652046304894,
                "zfar" : 100,
                "znear" : 0.10000000149011612
            },
            "type" : "perspective"
        }
    ],
    "materials" : [
        {
            "doubleSided" : true,
            "name" : "wall",
            "normalTexture" : {
                "index" : 0,
                "scale" : 0.5
            },
            "pbrMetallicRoughness" : {
                "baseColorFactor" : [
                    0.09641473740339279,
                    0.014974822290241718,
                    0.0057440754026174545,
                    1
                ],
                "baseColorTexture" : {
                    "index" : 1
                },
                "metallicFactor" : 0
            }
        },
        {
            "doubleSided" : true,
            "name" : "floor",
            "pbrMetallicRoughness" : {
                "baseColorTexture" : {
                    "index" : 2
                },
                "metallicFactor" : 0,
                "metallicRoughnessTexture" : {
                    "index" : 3
                }
            }
        },
        {
            "doubleSided" : true,
            "name" : "MetalLamp",
            "normalTexture" : {
                "index" : 4,
                "scale" : 0.8999999761581421
            },
            "pbrMetallicRoughness" : {
                "baseColorFactor" : [
                    0.3406769037246704,
                    0.3406769037246704,
                    0.3406769037246704,
                    1
                ],
                "baseColorTexture" : {
                    "index" : 5
                },
                "metallicRoughnessTexture" : {
                    "index" : 6
                }
            }
        },
        {
            "doubleSided" : true,
            "emissiveFactor" : [
                1,
                1,
                1
            ],
            "name" : "Emission",
            "pbrMetallicRoughness" : {
                "baseColorFactor" : [
                    0.800000011920929,
                    0.800000011920929,
                    0.800000011920929,
                    1
                ],
                "metallicFactor" : 0
            }
        }
    ],
    "meshes" : [
        {
            "name" : "Cube.001",
            "primitives" : [
                {
                    "attributes" : {
                        "POSITION" : 0,
                        "NORMAL" : 1,
                        "TEXCOORD_0" : 2
                    },
                    "indices" : 3,
                    "material" : 0
                }
            ]
        },
        {
            "name" : "Cube.002",
            "primitives" : [
                {
                    "attributes" : {
                        "POSITION" : 4,
                        "NORMAL" : 5,
                        "TEXCOORD_0" : 6
                    },
                    "indices" : 7,
                    "material" : 0
                }
            ]
        },
        {
            "name" : "Cube.003",
            "primitives" : [
                {
                    "attributes" : {
                        "POSITION" : 8,
                        "NORMAL" : 9,
                        "TEXCOORD_0" : 10
                    },
                    "indices" : 3,
                    "material" : 1
                }
            ]
        },
        {
            "name" : "Plane.001",
            "primitives" : [
                {
                    "attributes" : {
                        "POSITION" : 11,
                        "NORMAL" : 12,
                        "TEXCOORD_0" : 13
                    },
                    "indices" : 14,
                    "material" : 2
                }
            ]
        },
        {
            "name" : "Plane",
            "primitives" : [
                {
                    "attributes" : {
                        "POSITION" : 15,
                        "NORMAL" : 16,
                        "TEXCOORD_0" : 17
                    },
                    "indices" : 18,
                    "material" : 2
                }
            ]
        },
        {
            "name" : "Cube.005",
            "primitives" : [
                {
                    "attributes" : {
                        "POSITION" : 19,
                        "NORMAL" : 20,
                        "TEXCOORD_0" : 21
                    },
                    "indices" : 3,
                    "material" : 3
                }
            ]
        },
        {
            "name" : "Cube",
            "primitives" : [
                {
                    "attributes" : {
                        "POSITION" : 22,
                        "NORMAL" : 23,
                        "TEXCOORD_0" : 24
                    },
                    "indices" : 25,
                    "material" : 2
                }
            ]
        }
    ],
    "textures" : [
        {
            "sampler" : 0,
            "source" : 0
        },
        {
            "sampler" : 0,
            "source" : 1
        },
        {
            "sampler" : 0,
            "source" : 2
        },
        {
            "sampler" : 0,
            "source" : 3
        },
        {
            "sampler" : 0,
            "source" : 4
        },
        {
            "sampler" : 0,
            "source" : 5
        },
        {
            "sampler" : 0,
            "source" : 6
        }
    ],
    "images" : [
        {
            "mimeType" : "image/png",
            "name" : "normal_1k_3x16",
            "uri" : "normal_1k_3x16.png"
        },
        {
            "mimeType" : "image/png",
            "name" : "albedo_1k_3x8",
            "uri" : "albedo_1k_3x8.png"
        },
        {
            "mimeType" : "image/png",
            "name" : "albedo_1k_3x16",
            "uri" : "albedo_1k_3x16.png"
        },
        {
            "mimeType" : "image/png",
            "name" : "roughness_1k_1x16.tif",
            "uri" : "roughness_1k_1x16_tif.png"
        },
        {
            "mimeType" : "image/png",
            "name" : "normal_512_3x16",
            "uri" : "normal_512_3x16.png"
        },
        {
            "mimeType" : "image/png",
            "name" : "albedo_512_3x8",
            "uri" : "albedo_512_3x8.png"
        },
        {
            "mimeType" : "image/png",
            "name" : "metallic_512_1x8-roughness_512_1x8",
            "uri" : "metallic_512_1x8-roughness_512_1x8.png"
        }
    ],
    "accessors" : [
        {
            "bufferView" : 0,
            "componentType" : 5126,
            "count" : 24,
            "max" : [
                0,
                4,
                0
            ],
            "min" : [
                -8,
                0,
                -0.2499999701976776
            ],
            "type" : "VEC3"
        },
        {
            "bufferView" : 1,
            "componentType" : 5126,
            "count" : 24,
            "type" : "VEC3"
        },
        {
            "bufferView" : 2,
            "componentType" : 5126,
            "count" : 24,
            "type" : "VEC2"
        },
        {
            "bufferView" : 3,
            "componentType" : 5123,
            "count" : 36,
            "type" : "SCALAR"
        },
        {
            "bufferView" : 4,
            "componentType" : 5126,
            "count" : 24,
            "max" : [
                -2.3841856489070778e-07,
                4,
                3.75
            ],
            "min" : [
                -0.25000056624412537,
                0,
                -0.2500000298023224
            ],
            "type" : "VEC3"
        },
        {
            "bufferView" : 5,
            "componentType" : 5126,
            "count" : 24,
            "type" : "VEC3"
        },
        {
            "bufferView" : 6,
            "componentType" : 5126,
            "count" : 24,
            "type" : "VEC2"
        },
        {
            "bufferView" : 7,
            "componentType" : 5123,
            "count" : 36,
            "type" : "SCALAR"
        },
        {
            "bufferView" : 8,
            "componentType" : 5126,
            "count" : 24,
            "max" : [
                0,
                4,
                0
            ],
            "min" : [
                -8,
                0,
                -0.2499999701976776
            ],
            "type" : "VEC3"
        },
        {
            "bufferView" : 9,
            "componentType" : 5126,
            "count" : 24,
            "type" : "VEC3"
        },
        {
            "bufferView" : 10,
            "componentType" : 5126,
            "count" : 24,
            "type" : "VEC2"
        },
        {
            "bufferView" : 11,
            "componentType" : 5126,
            "count" : 129,
            "max" : [
                0.2209729701280594,
                0.00010369876690674573,
                0.38126739859580994
            ],
            "min" : [
                -0.2209729701280594,
                -0.07272860407829285,
                -0.5093125104904175
            ],
            "type" : "VEC3"
        },
        {
            "bufferView" : 12,
            "componentType" : 5126,
            "count" : 129,
            "type" : "VEC3"
        },
        {
            "bufferView" : 13,
            "componentType" : 5126,
            "count" : 129,
            "type" : "VEC2"
        },
        {
            "bufferView" : 14,
            "componentType" : 5123,
            "count" : 396,
            "type" : "SCALAR"
        },
        {
            "bufferView" : 15,
            "componentType" : 5126,
            "count" : 270,
            "max" : [
                0.050007425248622894,
                0.23892350494861603,
                0.3447722792625427
            ],
            "min" : [
                -0.05000001937150955,
                -0.44980284571647644,
                -0.30121731758117676
            ],
            "type" : "VEC3"
        },
        {
            "bufferView" : 16,
            "componentType" : 5126,
            "count" : 270,
            "type" : "VEC3"
        },
        {
            "bufferView" : 17,
            "componentType" : 5126,
            "count" : 270,
            "type" : "VEC2"
        },
        {
            "bufferView" : 18,
            "componentType" : 5123,
            "count" : 744,
            "type" : "SCALAR"
        },
        {
            "bufferView" : 19,
            "componentType" : 5126,
            "count" : 24,
            "max" : [
                0.19787588715553284,
                0.5643787384033203,
                0.19787588715553284
            ],
            "min" : [
                -0.19787588715553284,
                -0.5643787384033203,
                -0.19787588715553284
            ],
            "type" : "VEC3"
        },
        {
            "bufferView" : 20,
            "componentType" : 5126,
            "count" : 24,
            "type" : "VEC3"
        },
        {
            "bufferView" : 21,
            "componentType" : 5126,
            "count" : 24,
            "type" : "VEC2"
        },
        {
            "bufferView" : 22,
            "componentType" : 5126,
            "count" : 1126,
            "max" : [
                0.415607750415802,
                0.9059160947799683,
                1.264650821685791
            ],
            "min" : [
                -0.415607750415802,
                -1.0730705261230469,
                0.43343526124954224
            ],
            "type" : "VEC3"
        },
        {
            "bufferView" : 23,
            "componentType" : 5126,
            "count" : 1126,
            "type" : "VEC3"
        },
        {
            "bufferView" : 24,
            "componentType" : 5126,
            "count" : 1126,
            "type" : "VEC2"
        },
        {
            "bufferView" : 25,
            "componentType" : 5123,
            "count" : 2604,
            "type" : "SCALAR"
        }
    ],
    "bufferViews" : [
        {
            "buffer" : 0,
            "byteLength" : 288,
            "byteOffset" : 0
        },
        {
            "buffer" : 0,
            "byteLength" : 288,
            "byteOffset" : 288
        },
        {
            "buffer" : 0,
            "byteLength" : 192,
            "byteOffset" : 576
        },
        {
            "buffer" : 0,
            "byteLength" : 72,
            "byteOffset" : 768
        },
        {
            "buffer" : 0,
            "byteLength" : 288,
            "byteOffset" : 840
        },
        {
            "buffer" : 0,
            "byteLength" : 288,
            "byteOffset" : 1128
        },
        {
            "buffer" : 0,
            "byteLength" : 192,
            "byteOffset" : 1416
        },
        {
            "buffer" : 0,
            "byteLength" : 72,
            "byteOffset" : 1608
        },
        {
            "buffer" : 0,
            "byteLength" : 288,
            "byteOffset" : 1680
        },
        {
            "buffer" : 0,
            "byteLength" : 288,
            "byteOffset" : 1968
        },
        {
            "buffer" : 0,
            "byteLength" : 192,
            "byteOffset" : 2256
        },
        {
            "buffer" : 0,
            "byteLength" : 1548,
            "byteOffset" : 2448
        },
        {
            "buffer" : 0,
            "byteLength" : 1548,
            "byteOffset" : 3996
        },
        {
            "buffer" : 0,
            "byteLength" : 1032,
            "byteOffset" : 5544
        },
        {
            "buffer" : 0,
            "byteLength" : 792,
            "byteOffset" : 6576
        },
        {
            "buffer" : 0,
            "byteLength" : 3240,
            "byteOffset" : 7368
        },
        {
            "buffer" : 0,
            "byteLength" : 3240,
            "byteOffset" : 10608
        },
        {
            "buffer" : 0,
            "byteLength" : 2160,
            "byteOffset" : 13848
        },
        {
            "buffer" : 0,
            "byteLength" : 1488,
            "byteOffset" : 16008
        },
        {
            "buffer" : 0,
            "byteLength" : 288,
            "byteOffset" : 17496
        },
        {
            "buffer" : 0,
            "byteLength" : 288,
            "byteOffset" : 17784
        },
        {
            "buffer" : 0,
            "byteLength" : 192,
            "byteOffset" : 18072
        },
        {
            "buffer" : 0,
            "byteLength" : 13512,
            "byteOffset" : 18264
        },
        {
            "buffer" : 0,
            "byteLength" : 13512,
            "byteOffset" : 31776
        },
        {
            "buffer" : 0,
            "byteLength" : 9008,
            "byteOffset" : 45288
        },
        {
            "buffer" : 0,
            "byteLength" : 5208,
            "byteOffset" : 54296
        }
    ],
    "samplers" : [
        {
            "magFilter" : 9729,
            "minFilter" : 9987
        }
    ],
    "buffers" : [
        {
            "byteLength" : 59504,
            "uri" : "stage.bin"
        }
    ]
}
